PathFileType	4	(X/Y/Z)	OpenSim_Sub03_CSBaseline_Accel.trc
DataRate	CameraRate	NumFrames	NumMarkers	Units	OrigDataRate	OrigDataStartFrame	OrigNumFrames
100	100	37	8	m	100	3484	9288
Frame#	Time	torso_imu_offset_imu	pelvis_imu_offset_imu	tibia_r_imu_offset_imu	femur_r_imu_offset_imu	tibia_l_imu_offset_imu	femur_l_imu_offset_imu	toes_r_imu_offset_imu	toes_l_imu_offset_imu
				X1	Y1	Z1	X2	Y2	Z2	X3	Y3	Z3	X4	Y4	Z4	X5	Y5	Z5	X6	Y6	Z6	X7	Y7	Z7	X8		Y8	Z8	

3484	34.83000000	9.10591918	0.02163363	5.73733074	9.32263311	-0.17855959	1.95952707	9.82996739	0.42383480	-0.49979803	9.38199708	-0.73001164	-0.03758443	6.10856090	-2.90452893	2.33155757	8.46285376	0.02584775	0.27736166	5.82464899	-2.11624061	7.78306853	9.91564439	1.01802174	11.55481816
3485	34.84000000	9.05964344	0.00650972	5.72032463	9.14553276	-0.08584291	1.88302741	9.79129619	0.72962271	-0.86655855	9.31280178	-0.69486115	-0.11993743	6.78891865	-2.05988623	2.96676787	8.13648752	0.16611520	0.25877327	5.80618684	-2.20048110	7.86857203	10.87458345	1.78963968	11.62973981
3486	34.85000000	9.07563004	0.03359132	5.70557070	9.02599902	0.04703189	1.73716333	9.76469062	0.76030567	-0.45186400	9.43661031	-0.62527771	-0.16011775	7.77461405	-1.96115486	3.24933618	7.89779734	0.49654953	0.25797401	5.90609714	-1.88682951	7.79117777	11.77096454	2.65455508	11.58373222
3487	34.86000000	9.15131776	0.07624506	5.66273819	9.14316928	0.27127939	1.61921501	9.79280502	0.61658910	-0.29103161	9.41067563	-0.43794784	-0.20191255	8.87775040	-2.31469777	3.01354562	7.87539294	1.05295034	0.35317019	6.02823464	-1.63611124	7.89422597	12.13611393	2.98799667	11.28779472
3488	34.87000000	9.25348791	0.13276802	5.73094718	9.36421006	0.56467199	1.57534808	9.94043400	0.35717136	-0.41890501	9.65507005	-0.38842217	-0.30403249	9.92862053	-2.49594109	2.55170059	7.90059880	1.59742569	0.51288222	5.90271975	-1.79654160	7.88775336	12.39114796	2.55219018	10.96346430
3489	34.88000000	9.24364581	0.20450111	5.76533297	9.62607123	0.82707347	1.61730291	9.99928058	0.34539623	-0.36767187	9.69355414	-0.47336533	-0.45878445	10.90107319	-2.80194283	1.97078136	7.99926560	2.13365148	0.77103549	6.05338722	-1.63353458	7.90566655	12.91562079	1.42389050	10.92162706
3490	34.89000000	9.15255986	0.23793230	5.77781089	9.87781966	1.03879782	1.61907698	10.10704189	0.79549108	-0.35894496	9.64704787	-0.53601629	-0.53770830	11.84745705	-3.60216391	0.93843281	8.10141203	2.47323870	1.01267146	6.04741558	-1.66680763	7.93159193	14.07365185	0.37195915	11.10894190
3491	34.90000000	9.08316840	0.23272561	5.89144004	10.03366126	1.16403542	1.56214260	9.99682852	1.15049908	-0.58483672	9.46913615	-0.53384087	-0.60638142	12.37416439	-4.47619656	-0.07839574	8.26528288	2.62577561	1.20239051	6.18334013	-1.80894634	7.67960357	15.46202936	0.02863694	11.50909745
3492	34.91000000	9.10630606	0.21975075	5.95384900	10.04743901	1.22339556	1.47531010	9.99336594	1.01441102	-0.79215176	9.60893477	-0.36173456	-0.58281902	12.56043941	-5.10323592	-0.63069256	8.27111300	2.71149579	1.03948558	6.30200353	-1.87786051	7.71741764	16.96593562	-0.70379346	11.70892121
3493	34.92000000	9.19363906	0.28119864	5.96675200	9.83879613	1.33182789	1.45807022	9.84304087	1.23228246	-0.94824940	9.65725875	-0.06918723	-0.51335238	12.83928458	-5.56255145	-1.29790117	8.04179411	2.93536201	0.47313720	5.98085713	-1.89992191	7.75921459	17.78335740	-2.07040987	10.87245530
3494	34.93000000	9.20694002	0.30384169	6.00819721	9.52383471	1.44297457	1.49020531	9.78232660	1.77131088	-0.91978185	9.57820597	0.32867822	-0.49072286	12.66275504	-5.21980900	-1.00374391	7.99357781	3.32701062	-0.12620513	6.14224064	-1.57801346	7.82441064	17.70019096	-2.40727379	9.51295313
3495	34.94000000	9.20961893	0.37430473	5.96304312	9.37245619	1.53928961	1.40837511	9.86938392	1.67111326	-1.03356724	9.62345640	0.56861193	-0.54069847	11.43364092	-4.11755950	-0.04532888	8.19464297	3.84654241	-0.27980643	6.29999502	-1.92191387	7.72651166	17.81668347	-1.80569511	8.13504062
3496	34.95000000	9.36524046	0.54180473	6.01823795	9.35058644	1.57030282	1.34590962	9.86177073	1.14701216	-0.94113796	9.67722642	0.38754494	-0.46616228	10.60097765	-3.39314092	0.10099024	8.45778728	4.42594967	0.00355381	6.41047708	-1.73701725	7.57108049	18.68469424	-0.48950959	6.87162085
3497	34.96000000	9.51181081	0.63291893	5.94552343	9.37945875	1.47956950	1.32546238	9.86516229	0.93235790	-0.86311428	9.85550662	0.23043379	-0.29220847	10.60580864	-2.01816704	0.79943109	8.69081387	4.72948355	0.49826376	6.14083124	-1.59780457	7.91210605	18.86232928	0.18630279	4.59225407
3498	34.97000000	9.52847254	0.58406384	5.99358046	9.52007077	1.33850271	1.32976210	10.03448281	1.49721546	-0.70157302	9.95248409	-0.05786958	-0.23979873	11.02218659	-0.55860770	0.22336168	8.94263393	4.75395335	0.89971164	6.03980948	-1.48200248	7.97922887	18.84064958	-0.27054368	2.11425557
3499	34.98000000	9.52104964	0.49160586	5.99659806	9.61375139	1.21166690	1.34709260	10.25565762	1.57059510	-0.47128968	10.16285254	-0.28416584	-0.15124149	11.68792873	0.16813698	0.10348159	9.23622138	4.61954631	1.21503159	6.04677594	-1.36528593	8.07030755	19.81864734	0.34707715	1.43791227
3500	34.99000000	9.52986785	0.41096975	5.94393029	9.62117028	1.11937399	1.30010137	10.49091000	1.14417944	-0.23272205	10.38650840	-0.35282779	-0.14321324	11.80711772	-0.71178897	-0.39872762	9.26782251	4.55034913	1.48213671	6.43250814	-1.20108433	7.94829887	17.75340481	0.81434342	-0.33746888
3501	35	9.54083534	0.37358524	5.88811001	9.62346821	1.15459150	1.26420788	10.54637642	1.04699243	0.06091980	10.12680135	-1.14906082	-0.40753242	11.63671181	-1.97737746	-1.40396061	9.27627773	4.65449457	1.87728023	6.32087254	-1.05927169	7.90227282	16.17865033	0.16905918	-2.88253171
3502	35.01000000	9.56574524	0.39364830	5.83082256	9.61253607	1.13285329	1.42461046	10.44680209	1.03123648	-0.15283978	9.83720243	-1.87228088	-0.75433850	11.47071315	-1.31174875	-2.14820565	9.38329806	5.16454979	2.20115957	6.33728918	-1.23418775	7.99558228	17.44043871	-1.13049745	-5.65909188
3503	35.02000000	9.65077876	0.36063800	5.77345058	9.65105264	0.92158467	1.50353370	10.59144799	0.46758909	-0.20598464	9.81733452	-2.44707215	-1.13810163	10.73123891	1.82345269	-0.98805189	9.48804613	5.92596311	2.34796367	6.43555263	-1.25838061	7.86374409	18.72730060	-1.64246793	-8.64271009
3504	35.03000000	9.67377631	0.23149069	5.64758586	9.72969306	0.44292253	1.48044547	10.55883368	0.10306801	-0.32727251	9.66428711	-3.02284391	-1.29236280	10.62406680	3.79455031	0.30453497	9.82272262	6.44757770	2.24694568	6.45212158	-1.67091781	7.62541836	20.59623710	0.45647193	-10.83457260
3505	35.04000000	9.67630340	0.08954499	5.56690127	9.72079549	-0.03572680	1.30112184	10.56621486	0.19225318	-0.39034309	9.61810534	-3.19474109	-1.12254611	10.63919860	3.03319952	0.18357563	10.30749606	6.50233942	1.91611309	6.49407802	-1.70102742	7.79504299	16.14411461	-1.78902741	-12.23121455
3506	35.05000000	9.78224180	0.00111890	5.42993750	9.65767837	-0.25295109	1.05639512	10.66043511	0.03492706	-0.48718891	9.70253991	-3.20216589	-0.96261536	10.95264262	0.61525609	-0.38053098	10.79336903	6.07452347	2.11723430	6.45109468	-1.60597520	7.85992262	7.17496842	-4.32342398	1.46784483
3507	35.06000000	10.23581447	-0.01904472	5.37411709	9.66271939	-0.36316986	0.92194113	10.95931715	-0.29123037	-0.32871216	9.80182825	-3.12355581	-0.77498981	10.78491491	-2.68051761	-1.27857152	11.08104741	5.31783301	2.13361922	6.45113651	-2.03822792	8.00498977	9.32900571	9.43553237	26.44023118
3508	35.07000000	10.94010925	0.03922655	5.43498891	9.94402547	-0.24499495	1.02556620	11.30882405	-0.53034015	-0.32304038	10.28286786	-3.04735515	-0.56404531	10.10731315	-0.08046890	0.96780721	11.45403024	3.80568860	1.11148280	6.29814369	-2.43863635	8.11061594	1.16234765	4.60655094	19.58289543
3509	35.08000000	11.52357361	0.20871822	5.47696508	10.34677861	-0.34034170	1.39059222	12.04595167	-0.84796138	-0.32247912	10.87567520	-3.08179933	-0.29525999	12.34032506	7.17986697	6.79957095	11.60014380	1.47315152	-0.23112925	6.26794681	-2.49147974	8.25655165	2.83888884	-4.03140514	8.21958479
3510	35.09000000	11.43310989	0.35426538	5.42339679	10.83139828	-0.52462361	1.70154342	12.66745293	-1.11859711	0.06164281	11.00869406	-2.99104916	-0.05886583	13.11780875	8.00856649	5.69472470	10.86638900	-1.01239145	-1.14874011	6.10580434	-2.27523358	8.58130823	9.91490525	-1.83865339	11.02596609
3511	35.10000000	10.89149148	0.48394948	5.32968944	11.19419925	-0.58641275	1.91197459	12.86767416	-0.90219922	0.69656059	10.72005853	-3.12369419	0.26106014	10.51430935	6.09721050	1.34986217	10.74852021	-2.36493836	-0.55602597	6.07650098	-2.44361347	8.74452453	17.13332118	2.33774335	14.18940716
3512	35.11000000	10.62298725	0.64408937	5.33381762	11.50634885	-0.57085917	2.39155387	13.00891811	-0.99669983	1.09634194	10.34554400	-3.25283136	0.50877555	10.85413753	4.70276867	0.14146037	11.55556093	-1.20214058	1.80372918	6.09002396	-2.50391336	8.62329094	16.03633159	5.38168819	12.47562262
3513	35.12000000	10.92259095	0.85339164	5.39831482	11.62035470	-0.74473165	2.98811949	13.31394827	-1.69265118	1.35516009	10.26833370	-3.29325765	0.71485736	11.59158642	3.78514588	0.95951004	12.54061488	1.96151056	4.09020343	5.84177004	-2.19611298	8.63157438	8.49927660	4.35538953	8.97427968
3514	35.13000000	11.12835057	1.12911313	5.40449243	11.48375039	-0.90885039	3.43970389	13.62111880	-2.44848261	1.09467890	10.07759334	-3.06042454	0.84952717	10.92654010	1.17813657	-0.29830185	12.60165530	5.01436972	4.13234512	5.66329320	-2.79933669	8.68007538	10.61431898	2.55281970	14.41122020
3515	35.14000000	10.73194289	1.26190199	5.31992316	11.02900863	-0.94698183	3.76142858	14.09592798	-3.10206542	0.87398719	9.27649749	-2.86308747	1.19890020	11.07237568	-2.54399628	-2.25205758	11.53489658	5.76047159	1.84369121	5.64515866	-4.11548483	7.65002991	10.12872199	-1.96439317	13.37887731
3516	35.15000000	10.01930645	1.33722379	5.08128467	10.40536984	-0.89320866	3.97444780	14.15860449	-3.77420770	1.18321233	9.44182300	-2.35075377	1.93667205	11.06446876	-7.09845176	-2.19422350	9.86027495	3.71267548	-1.63478513	6.77233662	-4.09294581	7.65678737	8.26046008	-3.46765480	10.04467789
3517	35.16000000	9.30413425	1.43283789	4.76771668	9.85077185	-0.74660989	4.06973892	13.63609084	-3.92238451	1.11100549	9.65119685	-1.38617492	2.56084469	10.35136636	-9.00215182	-0.99088998	8.93253359	0.48711268	-3.83365021	10.36551594	-3.30793297	8.55589226	9.48604446	-0.93492095	12.06850650
3518	35.17000000	8.84542673	1.57681582	4.54216394	9.33777327	-0.32882267	4.13192108	12.90896854	-2.58962131	0.58701895	9.96860444	-0.52561081	2.91025097	9.50487781	-6.10153304	-1.21684527	9.03996153	-2.25045558	-3.69801209	13.05212415	-2.53109341	9.68675949	5.87885433	-0.20764022	10.63253843
3519	35.18000000	8.67058080	1.79251259	4.37163170	8.74309086	0.16259956	4.16296200	12.19800590	0.08055913	-0.30604793	11.05848132	0.34886351	2.60722022	9.44173592	-1.76061154	-2.31723716	9.22844397	-3.21942723	-2.53763611	13.63789594	-1.34138348	9.40976499	5.71127440	1.58074873	11.18849552
3520	35.19000000	8.63779617	1.93577526	4.28573651	8.36734629	0.43841105	4.13213519	11.87214167	2.75533532	-1.30144984	12.03249046	0.95131657	2.40094975	9.86466110	1.54537084	-0.70152546	8.98588596	-2.93727790	-1.41628739	15.95864590	-0.58960803	7.79843223	5.91723540	2.25119858	10.61788406
